# xmcd CD database file
#
# Track frame offsets:
#	150
#	22382
#	43800
#	59965
#	89709
#	112060
#	126261
#	143751
#	161669
#	174705
#
# Disc length: 2555 seconds
#
# Revision: 1
# Processed by: cddbd v1.5.2PL0 Copyright (c) Steve Scherf et al.
# Submitted via: CDex 1.51
#
DISCID=a209f90a
DTITLE=Ana Popovic - Like It On Top
DYEAR=2018
DGENRE=Blues
TTITLE0=Feat.Keb' Mo'_Lasting Kind Of Love
TTITLE1=Feat.Robben Ford and Keb' Mo'_Like It On Top
TTITLE2=Feat.Kenny  Wayne Shepherd_Sexy Tonight
TTITLE3=Feat.Robben Ford_Slow Dance
TTITLE4=Funkin Attitude
TTITLE5=Last Thing I Do
TTITLE6=Virtual Ground
TTITLE7=Brand New Man
TTITLE8=Matter Of Time
TTITLE9=Honey I'm Home
EXTD=YEAR: 2018
EXTT0=
EXTT1=
EXTT2=
EXTT3=
EXTT4=
EXTT5=
EXTT6=
EXTT7=
EXTT8=
EXTT9=
PLAYORDER=
